<svg width="15" height="16" viewBox="0 0 15 16" fill="none" xmlns="http://www.w3.org/2000/svg">
<path d="M14.9926 8.14974C14.9926 7.49423 14.9415 7.01588 14.8311 6.51982H7.64987V9.47847H11.8651C11.7801 10.2137 11.3212 11.321 10.3014 12.0651L10.2871 12.1642L12.5576 13.9976L12.715 14.014C14.1597 12.6232 14.9926 10.5769 14.9926 8.14974Z" fill="#4285F4"/>
<path d="M7.64951 15.9451C9.71462 15.9451 11.4483 15.2364 12.7146 14.014L10.301 12.0651C9.65515 12.5346 8.78828 12.8624 7.64951 12.8624C5.62688 12.8624 3.9102 11.4716 3.29825 9.54938L3.20855 9.55731L0.847572 11.4619L0.816696 11.5513C2.07446 14.1557 4.65801 15.9451 7.64951 15.9451Z" fill="#34A853"/>
<path d="M3.29797 9.54931C3.1365 9.05325 3.04305 8.52171 3.04305 7.97252C3.04305 7.42326 3.1365 6.89178 3.28947 6.39572L3.2852 6.29007L0.894643 4.35493L0.816429 4.39371C0.298045 5.47444 0.000595093 6.68806 0.000595093 7.97252C0.000595093 9.25698 0.298045 10.4705 0.816429 11.5513L3.29797 9.54931Z" fill="#FBBC05"/>
<path d="M7.64949 3.08271C9.08571 3.08271 10.0545 3.72937 10.6069 4.26976L12.7655 2.07288C11.4398 0.78842 9.71459 2.28882e-05 7.64949 2.28882e-05C4.658 2.28882e-05 2.07446 1.7894 0.816696 4.39373L3.28974 6.39575C3.91019 4.47349 5.62686 3.08271 7.64949 3.08271Z" fill="#EB4335"/>
</svg>
